<svg width="242" height="24" viewBox="0 0 242 24" fill="none" xmlns="http://www.w3.org/2000/svg">
<path fill-rule="evenodd" clip-rule="evenodd" d="M12.6191 24C19.2466 24 24.6191 18.6274 24.6191 12C24.6191 5.37258 19.2466 0 12.6191 0C5.99172 0 0.619141 5.37258 0.619141 12C0.619141 18.6274 5.99172 24 12.6191 24ZM17.8836 6L13.5489 11.0388H13.5486L18.2631 17.8998H14.7958L11.6211 13.2796L7.64639 17.8998H6.61914L11.165 12.6159L6.61914 6H10.0864L13.0926 10.3751L16.8564 6H17.8836ZM11.6813 12.0154L12.1419 12.6742V12.6744L15.2791 17.1617H16.8569L13.0124 11.6626L12.5518 11.0038L9.59431 6.77329H8.01652L11.6813 12.0154Z" fill="white"/>
<path d="M55.6191 12C55.6191 10.3438 55.3066 8.78906 54.6816 7.33594C54.0566 5.86719 53.2012 4.58984 52.1152 3.50391C51.0293 2.41797 49.752 1.5625 48.2832 0.9375C46.8301 0.3125 45.2754 0 43.6191 0C41.9629 0 40.4082 0.3125 38.9551 0.9375C37.4863 1.5625 36.209 2.41797 35.123 3.50391C34.0371 4.58984 33.1816 5.86719 32.5566 7.33594C31.9316 8.78906 31.6191 10.3438 31.6191 12C31.6191 13.6562 31.9316 15.2109 32.5566 16.6641C33.1816 18.1328 34.0371 19.4102 35.123 20.4961C36.209 21.582 37.4863 22.4375 38.9551 23.0625C40.4082 23.6875 41.9629 24 43.6191 24C43.6504 24 43.6855 24 43.7246 24C43.7637 24 43.7988 24 43.8301 24V14.6484H41.252V11.6484H43.8301V9.44531C43.8301 8.16406 44.1855 7.18359 44.8965 6.50391C45.6074 5.82422 46.5332 5.48438 47.6738 5.48438C48.2363 5.48438 48.7285 5.5 49.1504 5.53125C49.5723 5.5625 49.8535 5.58594 49.9941 5.60156V8.27344H48.4238C47.7988 8.27344 47.3926 8.41016 47.2051 8.68359C47.0176 8.95703 46.9238 9.30469 46.9238 9.72656V11.6484H49.9004L49.5254 14.6484H46.9238V23.5312C48.1895 23.1719 49.3535 22.625 50.416 21.8906C51.4785 21.1562 52.3926 20.2852 53.1582 19.2773C53.9238 18.2695 54.5254 17.1484 54.9629 15.9141C55.4004 14.6797 55.6191 13.375 55.6191 12Z" fill="white"/>
<path d="M73.1327 14.2356L77.024 11.9879L73.1327 9.74018V14.2356ZM74.6071 0C72.9636 0 71.4087 0.314199 69.9424 0.942598C68.4923 1.571 67.2234 2.42497 66.1358 3.50453C65.0481 4.58409 64.1901 5.857 63.5617 7.32326C62.9333 8.77341 62.6191 10.3283 62.6191 11.9879C62.6191 13.6475 62.9333 15.2024 63.5617 16.6526C64.1901 18.1188 65.0481 19.3958 66.1358 20.4834C67.2234 21.571 68.4923 22.429 69.9424 23.0574C71.4087 23.6858 72.9636 24 74.6071 24C76.2667 24 77.8296 23.6858 79.2959 23.0574C80.746 22.429 82.0149 21.571 83.1025 20.4834C84.1901 19.3958 85.0481 18.1188 85.6765 16.6526C86.3049 15.2024 86.6191 13.6475 86.6191 11.9879C86.6191 10.3283 86.3049 8.77341 85.6765 7.32326C85.0481 5.857 84.1901 4.58409 83.1025 3.50453C82.0149 2.42497 80.746 1.571 79.2959 0.942598C77.8296 0.314199 76.2667 0 74.6071 0ZM82.1237 12.0121C82.1237 12.0121 82.1116 12.4632 82.0874 13.3656C82.0632 14.2679 81.9706 15.0171 81.8095 15.6133C81.7289 15.9355 81.5678 16.2135 81.3261 16.4471C81.0844 16.6808 80.8024 16.8459 80.4802 16.9426C80.1901 17.007 79.7229 17.0634 79.0784 17.1118C78.4338 17.1601 77.7813 17.1923 77.1207 17.2085C76.46 17.2246 75.88 17.2326 75.3805 17.2326C74.8649 17.2326 74.6071 17.2326 74.6071 17.2326C74.6071 17.2326 74.3573 17.2326 73.8578 17.2326C73.3583 17.2326 72.7823 17.2205 72.1297 17.1964C71.4771 17.1722 70.8206 17.144 70.1599 17.1118C69.5154 17.0634 69.0481 16.999 68.7581 16.9184C68.4359 16.8379 68.1539 16.6767 67.9122 16.435C67.6705 16.1934 67.5094 15.9114 67.4288 15.5891C67.2677 15.0091 67.175 14.2638 67.1509 13.3535C67.1267 12.4431 67.1146 11.9879 67.1146 11.9879C67.1146 11.9879 67.1267 11.5327 67.1509 10.6224C67.175 9.71198 67.2677 8.96677 67.4288 8.38671C67.5094 8.06445 67.6705 7.78248 67.9122 7.54078C68.1539 7.29909 68.4359 7.13797 68.7581 7.0574C69.0481 6.97684 69.5154 6.91239 70.1599 6.86405C70.8044 6.83182 71.457 6.80363 72.1176 6.77946C72.7783 6.75529 73.3583 6.7432 73.8578 6.7432C74.3573 6.7432 74.6071 6.7432 74.6071 6.7432C74.6071 6.7432 74.8649 6.7432 75.3805 6.7432C75.88 6.7432 76.46 6.75529 77.1207 6.77946C77.7813 6.80363 78.4338 6.83182 79.0784 6.86405C79.7229 6.91239 80.1901 6.97684 80.4802 7.0574C80.8024 7.15408 81.0844 7.31923 81.3261 7.55287C81.5678 7.7865 81.7289 8.06445 81.8095 8.38671C81.9706 8.96677 82.0632 9.71601 82.0874 10.6344C82.1116 11.5529 82.1237 12.0121 82.1237 12.0121Z" fill="white"/>
<path d="M105.607 0C103.964 0 102.409 0.314199 100.942 0.942598C99.4923 1.571 98.2234 2.42497 97.1358 3.50453C96.0481 4.58409 95.1901 5.857 94.5617 7.32326C93.9333 8.77341 93.6191 10.3283 93.6191 11.9879C93.6191 13.6475 93.9333 15.2024 94.5617 16.6526C95.1901 18.1188 96.0481 19.3958 97.1358 20.4834C98.2234 21.571 99.4923 22.429 100.942 23.0574C102.409 23.6858 103.964 24 105.607 24C107.267 24 108.83 23.6858 110.296 23.0574C111.746 22.429 113.015 21.571 114.103 20.4834C115.19 19.3958 116.048 18.1188 116.677 16.6526C117.305 15.2024 117.619 13.6475 117.619 11.9879C117.619 10.3283 117.305 8.77341 116.677 7.32326C116.048 5.857 115.19 4.58409 114.103 3.50453C113.015 2.42497 111.746 1.571 110.296 0.942598C108.83 0.314199 107.267 0 105.607 0ZM102.127 18.1269H99.2022V9.3293H102.127V18.1269ZM100.677 8.14501H100.652C100.169 8.14501 99.7783 7.99597 99.4802 7.69789C99.1821 7.3998 99.033 7.04129 99.033 6.62236C99.033 6.18731 99.1861 5.82477 99.4923 5.53474C99.7984 5.24471 100.201 5.0997 100.701 5.0997C101.2 5.0997 101.595 5.24471 101.885 5.53474C102.175 5.82477 102.32 6.18731 102.32 6.62236C102.32 7.04129 102.171 7.3998 101.873 7.69789C101.575 7.99597 101.176 8.14501 100.677 8.14501ZM112.664 18.1269H109.74V13.4381C109.74 12.8419 109.627 12.3585 109.402 11.9879C109.176 11.6173 108.797 11.432 108.266 11.432C107.863 11.432 107.541 11.5448 107.299 11.7704C107.057 11.996 106.88 12.2377 106.767 12.4955C106.735 12.5921 106.711 12.7049 106.695 12.8338C106.679 12.9627 106.67 13.0916 106.67 13.2205V18.1269H103.746C103.746 18.1269 103.746 17.708 103.746 16.8701C103.762 16.0322 103.77 15.0896 103.77 14.0423C103.77 12.995 103.77 12.004 103.77 11.0695C103.77 10.1188 103.762 9.53877 103.746 9.3293H106.67V10.5861C106.864 10.28 107.158 9.96173 107.553 9.63142C107.947 9.30111 108.532 9.13595 109.305 9.13595C110.272 9.13595 111.073 9.45821 111.71 10.1027C112.346 10.7472 112.664 11.7462 112.664 13.0997V18.1269Z" fill="white"/>
<path d="M138.927 11.9879C138.927 12.6163 138.702 13.1561 138.251 13.6073C137.799 14.0584 137.26 14.284 136.631 14.284C136.003 14.284 135.463 14.0584 135.012 13.6073C134.561 13.1561 134.335 12.6163 134.335 11.9879C134.335 11.3595 134.561 10.8197 135.012 10.3686C135.463 9.91742 136.003 9.69184 136.631 9.69184C137.26 9.69184 137.799 9.91742 138.251 10.3686C138.702 10.8197 138.927 11.3595 138.927 11.9879ZM141.997 7.92749C141.948 7.78248 141.88 7.64149 141.791 7.50453C141.703 7.36757 141.602 7.2427 141.489 7.12991C141.376 7.01712 141.252 6.91641 141.115 6.8278C140.978 6.73917 140.837 6.67069 140.692 6.62236C140.579 6.57402 140.422 6.52568 140.22 6.47734C140.019 6.429 139.749 6.39678 139.411 6.38066C139.056 6.36455 138.734 6.35247 138.444 6.34441C138.154 6.33636 137.55 6.33233 136.631 6.33233C135.713 6.33233 135.109 6.33636 134.819 6.34441C134.529 6.35247 134.206 6.36455 133.852 6.38066C133.513 6.39678 133.244 6.429 133.042 6.47734C132.841 6.52568 132.684 6.57402 132.571 6.62236C132.426 6.67069 132.285 6.73917 132.148 6.8278C132.011 6.91641 131.886 7.01712 131.773 7.12991C131.66 7.2427 131.56 7.36757 131.471 7.50453C131.382 7.64149 131.314 7.78248 131.266 7.92749C131.217 8.04028 131.169 8.19738 131.121 8.39879C131.072 8.6002 131.04 8.87009 131.024 9.20846C131.008 9.56294 130.996 9.8852 130.988 10.1752C130.98 10.4653 130.976 11.0695 130.976 11.9879C130.976 12.9063 130.98 13.5106 130.988 13.8006C130.996 14.0906 131.008 14.4129 131.024 14.7674C131.04 15.1057 131.072 15.3756 131.121 15.577C131.169 15.7784 131.217 15.9355 131.266 16.0483C131.314 16.2095 131.382 16.3545 131.471 16.4834C131.56 16.6123 131.66 16.7331 131.773 16.8459C131.886 16.9587 132.011 17.0594 132.148 17.148C132.285 17.2367 132.426 17.3051 132.571 17.3535C132.684 17.4018 132.841 17.4502 133.042 17.4985C133.244 17.5468 133.513 17.5791 133.852 17.5952C134.206 17.6113 134.529 17.6234 134.819 17.6314C135.109 17.6395 135.713 17.6435 136.631 17.6435C137.55 17.6435 138.154 17.6395 138.444 17.6314C138.734 17.6234 139.056 17.6113 139.411 17.5952C139.749 17.5791 140.019 17.5468 140.22 17.4985C140.422 17.4502 140.579 17.4018 140.692 17.3535C140.998 17.2407 141.264 17.0715 141.489 16.8459C141.715 16.6203 141.884 16.3545 141.997 16.0483C142.045 15.9355 142.093 15.7784 142.142 15.577C142.19 15.3756 142.222 15.1057 142.238 14.7674C142.255 14.4129 142.267 14.0906 142.275 13.8006C142.283 13.5106 142.287 12.9063 142.287 11.9879C142.287 11.0695 142.283 10.4653 142.275 10.1752C142.267 9.8852 142.255 9.56294 142.238 9.20846C142.222 8.87009 142.19 8.6002 142.142 8.39879C142.093 8.19738 142.045 8.04028 141.997 7.92749ZM136.631 15.5166C135.648 15.5166 134.815 15.1742 134.13 14.4894C133.445 13.8046 133.103 12.9708 133.103 11.9879C133.103 11.005 133.445 10.1712 134.13 9.4864C134.815 8.80161 135.648 8.45921 136.631 8.45921C137.614 8.45921 138.448 8.80161 139.133 9.4864C139.818 10.1712 140.16 11.005 140.16 11.9879C140.16 12.9708 139.818 13.8046 139.133 14.4894C138.448 15.1742 137.614 15.5166 136.631 15.5166ZM140.305 9.13595C140.079 9.13595 139.886 9.05539 139.725 8.89426C139.564 8.73313 139.483 8.53978 139.483 8.3142C139.483 8.08862 139.564 7.89527 139.725 7.73414C139.886 7.57301 140.079 7.49245 140.305 7.49245C140.531 7.49245 140.724 7.57301 140.885 7.73414C141.046 7.89527 141.127 8.08862 141.127 8.3142C141.127 8.53978 141.046 8.73313 140.885 8.89426C140.724 9.05539 140.531 9.13595 140.305 9.13595ZM136.631 0C134.972 0 133.417 0.314199 131.967 0.942598C130.5 1.571 129.227 2.42497 128.148 3.50453C127.068 4.58409 126.214 5.857 125.586 7.32326C124.941 8.77341 124.619 10.3283 124.619 11.9879C124.619 13.6475 124.941 15.2024 125.586 16.6526C126.214 18.1188 127.068 19.3958 128.148 20.4834C129.227 21.571 130.5 22.429 131.967 23.0574C133.417 23.6858 134.972 24 136.631 24C138.291 24 139.846 23.6858 141.296 23.0574C142.762 22.429 144.035 21.571 145.115 20.4834C146.194 19.3958 147.048 18.1188 147.677 16.6526C148.305 15.2024 148.619 13.6475 148.619 11.9879C148.619 10.3283 148.305 8.77341 147.677 7.32326C147.048 5.857 146.194 4.58409 145.115 3.50453C144.035 2.42497 142.762 1.571 141.296 0.942598C139.846 0.314199 138.291 0 136.631 0ZM143.471 14.8399C143.455 15.1944 143.419 15.5045 143.362 15.7704C143.306 16.0363 143.237 16.282 143.157 16.5076C142.98 16.9748 142.714 17.3817 142.359 17.7281C142.005 18.0745 141.602 18.3364 141.151 18.5136C140.925 18.5942 140.68 18.6626 140.414 18.719C140.148 18.7754 139.838 18.8117 139.483 18.8278C139.113 18.86 138.778 18.8761 138.48 18.8761C138.182 18.8761 137.566 18.8761 136.631 18.8761C135.697 18.8761 135.08 18.8761 134.782 18.8761C134.484 18.8761 134.15 18.86 133.779 18.8278C133.425 18.8117 133.115 18.7754 132.849 18.719C132.583 18.6626 132.337 18.5942 132.112 18.5136C131.886 18.433 131.668 18.3243 131.459 18.1873C131.25 18.0504 131.064 17.8933 130.903 17.716C130.726 17.5549 130.569 17.3696 130.432 17.1601C130.295 16.9507 130.186 16.7331 130.106 16.5076C130.025 16.282 129.957 16.0363 129.9 15.7704C129.844 15.5045 129.807 15.1944 129.791 14.8399C129.775 14.4693 129.763 14.1349 129.755 13.8369C129.747 13.5388 129.743 12.9225 129.743 11.9879C129.743 11.0534 129.747 10.4371 129.755 10.139C129.763 9.84089 129.775 9.5146 129.791 9.16012C129.807 8.78953 129.844 8.4713 129.9 8.20544C129.957 7.93958 130.025 7.69386 130.106 7.46828C130.186 7.2427 130.295 7.02921 130.432 6.8278C130.569 6.62638 130.726 6.43706 130.903 6.25982C131.064 6.08258 131.25 5.92548 131.459 5.78852C131.668 5.65156 131.886 5.5428 132.112 5.46224C132.337 5.38167 132.583 5.31319 132.849 5.2568C133.115 5.2004 133.425 5.16415 133.779 5.14804C134.15 5.13192 134.484 5.11984 134.782 5.11178C135.08 5.10373 135.697 5.0997 136.631 5.0997C137.566 5.0997 138.182 5.10373 138.48 5.11178C138.778 5.11984 139.113 5.13192 139.483 5.14804C139.838 5.16415 140.148 5.2004 140.414 5.2568C140.68 5.31319 140.925 5.38167 141.151 5.46224C141.376 5.5428 141.594 5.65156 141.803 5.78852C142.013 5.92548 142.198 6.08258 142.359 6.25982C142.537 6.43706 142.694 6.62638 142.831 6.8278C142.968 7.02921 143.076 7.2427 143.157 7.46828C143.237 7.69386 143.306 7.93958 143.362 8.20544C143.419 8.4713 143.455 8.78953 143.471 9.16012C143.487 9.5146 143.499 9.84089 143.507 10.139C143.515 10.4371 143.519 11.0534 143.519 11.9879C143.519 12.9225 143.515 13.5388 143.507 13.8369C143.499 14.1349 143.487 14.4693 143.471 14.8399Z" fill="white"/>
<path d="M167.619 0C160.99 0 155.619 5.37067 155.619 12C155.619 18.6293 160.99 24 167.619 24C174.248 24 179.619 18.6293 179.619 12C179.619 5.37067 174.248 0 167.619 0ZM173.459 10.8427C173.267 10.8427 171.592 10.8107 170.046 9.696V14.5333C170.046 16.816 168.19 18.672 165.907 18.672C163.624 18.672 161.768 16.816 161.768 14.5333C161.768 12.2507 163.624 10.3947 165.907 10.3947H166.579V12.528H165.907C164.803 12.528 163.902 13.4293 163.902 14.5333C163.902 15.6373 164.803 16.5387 165.907 16.5387C167.011 16.5387 167.912 15.6373 167.912 14.5333V5.33333H170.046V5.40267C170.094 5.92 170.398 7.312 171.272 7.952C172.275 8.688 173.454 8.70933 173.464 8.70933H173.459V10.8427Z" fill="white"/>
<path d="M198.631 0C196.972 0 195.417 0.314199 193.967 0.942598C192.5 1.571 191.227 2.42497 190.148 3.50453C189.068 4.58409 188.214 5.857 187.586 7.32326C186.941 8.77341 186.619 10.3283 186.619 11.9879C186.619 13.6475 186.941 15.2024 187.586 16.6526C188.214 18.1188 189.068 19.3958 190.148 20.4834C191.227 21.571 192.5 22.429 193.967 23.0574C195.417 23.6858 196.972 24 198.631 24C200.291 24 201.846 23.6858 203.296 23.0574C204.762 22.429 206.035 21.571 207.115 20.4834C208.194 19.3958 209.048 18.1188 209.677 16.6526C210.305 15.2024 210.619 13.6475 210.619 11.9879C210.619 10.3283 210.305 8.77341 209.677 7.32326C209.048 5.857 208.194 4.58409 207.115 3.50453C206.035 2.42497 204.762 1.571 203.296 0.942598C201.846 0.314199 200.291 0 198.631 0ZM200.009 15.9758C199.461 15.9758 198.949 15.8469 198.474 15.5891C197.999 15.3313 197.673 15.0332 197.495 14.6949C197.495 14.6949 197.391 15.1098 197.181 15.9396C196.972 16.7694 196.835 17.2971 196.77 17.5227C196.545 18.3283 196.194 19.0735 195.719 19.7583C195.244 20.4431 194.974 20.8177 194.909 20.8822C194.877 20.9305 194.833 20.9466 194.776 20.9305C194.72 20.9144 194.684 20.8822 194.667 20.8338C194.667 20.721 194.623 20.2497 194.535 19.4199C194.446 18.5901 194.506 17.7563 194.716 16.9184C194.764 16.709 194.861 16.2981 195.006 15.6858C195.151 15.0735 195.3 14.4451 195.453 13.8006C195.606 13.1561 195.739 12.5841 195.852 12.0846C195.965 11.569 196.021 11.3112 196.021 11.3112C196.021 11.3112 195.969 11.1621 195.864 10.864C195.759 10.566 195.707 10.1752 195.707 9.69184C195.707 8.93454 195.9 8.30211 196.287 7.79456C196.674 7.28701 197.141 7.03323 197.689 7.03323C198.156 7.03323 198.502 7.1863 198.728 7.49245C198.953 7.79859 199.066 8.16113 199.066 8.58006C199.066 9.04733 198.953 9.60725 198.728 10.2598C198.502 10.9124 198.317 11.569 198.172 12.2296C198.043 12.7613 198.144 13.2246 198.474 13.6193C198.804 14.0141 199.244 14.2115 199.791 14.2115C200.758 14.2115 201.544 13.6677 202.148 12.5801C202.752 11.4924 203.054 10.2075 203.054 8.72508C203.054 7.61329 202.684 6.67875 201.942 5.92145C201.201 5.16415 200.146 4.7855 198.776 4.7855C197.987 4.7855 197.286 4.92246 196.674 5.19637C196.045 5.47029 195.509 5.83283 195.066 6.28399C194.623 6.73515 194.289 7.25881 194.063 7.85498C193.822 8.45116 193.701 9.0715 193.701 9.71601C193.701 10.1672 193.761 10.5539 193.882 10.8761C194.003 11.1984 194.168 11.4884 194.377 11.7462C194.474 11.8429 194.535 11.9275 194.559 12C194.583 12.0725 194.571 12.1732 194.522 12.3021C194.506 12.3988 194.474 12.5398 194.426 12.7251C194.377 12.9104 194.345 13.0433 194.329 13.1239C194.297 13.2528 194.232 13.3414 194.136 13.3897C194.039 13.4381 193.926 13.4381 193.797 13.3897C193.088 13.0997 192.561 12.5921 192.214 11.8671C191.868 11.142 191.695 10.3444 191.695 9.47432C191.695 8.73313 191.848 7.98389 192.154 7.22659C192.476 6.46928 192.943 5.78046 193.556 5.16012C194.168 4.53978 194.933 4.0282 195.852 3.62538C196.77 3.23867 197.834 3.04532 199.042 3.04532C200.025 3.04532 200.919 3.20645 201.725 3.5287C202.531 3.86707 203.215 4.30614 203.779 4.84592C204.343 5.3857 204.778 6.01007 205.084 6.71903C205.407 7.428 205.568 8.16113 205.568 8.91843C205.568 9.93353 205.431 10.8681 205.157 11.7221C204.883 12.5921 204.504 13.3414 204.021 13.9698C203.538 14.5982 202.958 15.0896 202.281 15.4441C201.588 15.7986 200.831 15.9758 200.009 15.9758Z" fill="white"/>
<path d="M229.631 0C227.972 0 226.417 0.314199 224.967 0.942598C223.5 1.571 222.227 2.42497 221.148 3.50453C220.068 4.58409 219.214 5.857 218.586 7.32326C217.941 8.77341 217.619 10.3283 217.619 11.9879C217.619 13.6475 217.941 15.2024 218.586 16.6526C219.214 18.1188 220.068 19.3958 221.148 20.4834C222.227 21.571 223.5 22.429 224.967 23.0574C226.417 23.6858 227.972 24 229.631 24C231.291 24 232.846 23.6858 234.296 23.0574C235.762 22.429 237.035 21.571 238.115 20.4834C239.194 19.3958 240.048 18.1188 240.677 16.6526C241.305 15.2024 241.619 13.6475 241.619 11.9879C241.619 10.3283 241.305 8.77341 240.677 7.32326C240.048 5.857 239.194 4.58409 238.115 3.50453C237.035 2.42497 235.762 1.571 234.296 0.942598C232.846 0.314199 231.291 0 229.631 0ZM234.248 17.6918C234.151 17.6918 234.066 17.6757 233.994 17.6435C233.921 17.6113 233.837 17.571 233.74 17.5227C232.87 16.9909 231.907 16.5881 230.852 16.3142C229.796 16.0403 228.689 15.9033 227.529 15.9033C226.884 15.9033 226.244 15.9436 225.607 16.0242C224.971 16.1047 224.354 16.2014 223.758 16.3142C223.645 16.3464 223.537 16.3746 223.432 16.3988C223.327 16.423 223.234 16.435 223.154 16.435C222.928 16.435 222.747 16.3585 222.61 16.2054C222.473 16.0524 222.405 15.8792 222.405 15.6858C222.405 15.428 222.465 15.2346 222.586 15.1057C222.707 14.9768 222.864 14.8963 223.057 14.864C223.798 14.6868 224.54 14.5539 225.281 14.4653C226.022 14.3766 226.771 14.3323 227.529 14.3323C228.85 14.3323 230.094 14.4814 231.263 14.7795C232.431 15.0775 233.514 15.5327 234.513 16.145C234.675 16.2256 234.795 16.3223 234.876 16.435C234.957 16.5478 234.997 16.717 234.997 16.9426C234.997 17.1521 234.92 17.3293 234.767 17.4743C234.614 17.6193 234.441 17.6918 234.248 17.6918ZM235.553 14.5015C235.424 14.5015 235.315 14.4814 235.226 14.4411C235.138 14.4008 235.045 14.3565 234.948 14.3082C234.465 14.0181 233.933 13.7523 233.353 13.5106C232.773 13.2689 232.161 13.0675 231.516 12.9063C230.872 12.7452 230.203 12.6163 229.51 12.5196C228.801 12.423 228.076 12.3746 227.335 12.3746C226.578 12.3746 225.873 12.423 225.22 12.5196C224.568 12.6163 223.968 12.7372 223.42 12.8822C223.307 12.9144 223.21 12.9426 223.13 12.9668C223.049 12.9909 222.952 13.003 222.84 13.003C222.582 13.003 222.36 12.9144 222.175 12.7372C221.99 12.5599 221.897 12.3424 221.897 12.0846C221.897 11.8268 221.958 11.6093 222.078 11.432C222.199 11.2548 222.389 11.1339 222.646 11.0695C223.323 10.8922 224.028 10.7392 224.761 10.6103C225.494 10.4814 226.368 10.4169 227.383 10.4169C228.157 10.4169 228.93 10.4653 229.704 10.5619C230.477 10.6586 231.226 10.7996 231.951 10.9849C232.677 11.1702 233.369 11.3998 234.03 11.6737C234.707 11.9476 235.343 12.2618 235.939 12.6163C236.149 12.7452 236.294 12.8822 236.374 13.0272C236.455 13.1722 236.495 13.3575 236.495 13.5831C236.495 13.8409 236.403 14.0584 236.217 14.2356C236.032 14.4129 235.81 14.5015 235.553 14.5015ZM237.051 10.8278C236.922 10.8278 236.814 10.8117 236.725 10.7795C236.636 10.7472 236.536 10.6989 236.423 10.6344C235.875 10.3122 235.263 10.0222 234.586 9.76435C233.909 9.52266 233.192 9.31319 232.435 9.13595C231.678 8.95871 230.888 8.82981 230.066 8.74924C229.261 8.65257 228.447 8.60423 227.625 8.60423C226.803 8.60423 225.99 8.65257 225.184 8.74924C224.378 8.84592 223.597 8.99094 222.84 9.18429C222.743 9.21652 222.642 9.24874 222.538 9.28097C222.433 9.31319 222.324 9.3293 222.211 9.3293C221.889 9.3293 221.619 9.21652 221.402 8.99094C221.184 8.76536 221.075 8.49144 221.075 8.16918C221.075 7.84693 221.164 7.59315 221.341 7.40785C221.518 7.22256 221.712 7.09768 221.921 7.03323C222.775 6.77543 223.678 6.5861 224.628 6.46526C225.579 6.34441 226.578 6.28399 227.625 6.28399C228.495 6.28399 229.381 6.33233 230.284 6.429C231.17 6.52568 232.04 6.66667 232.894 6.85196C233.748 7.03726 234.57 7.27493 235.359 7.56495C236.149 7.85498 236.882 8.20141 237.559 8.60423C237.736 8.70091 237.885 8.83384 238.006 9.00302C238.127 9.17221 238.187 9.40181 238.187 9.69184C238.187 10.0141 238.074 10.284 237.849 10.5015C237.623 10.719 237.357 10.8278 237.051 10.8278Z" fill="white"/>
</svg>
