<svg width="33" height="32" viewBox="0 0 33 32" fill="none" xmlns="http://www.w3.org/2000/svg">
<path d="M14.9783 6.28331C15.4573 4.80921 17.5427 4.80921 18.0217 6.28331L19.733 11.5502C19.9472 12.2094 20.5615 12.6558 21.2547 12.6558H26.7926C28.3426 12.6558 28.987 14.6391 27.7331 15.5502L23.2528 18.8053C22.692 19.2127 22.4574 19.9349 22.6716 20.5941L24.3829 25.861C24.8618 27.3351 23.1747 28.5609 21.9207 27.6499L17.4404 24.3948C16.8797 23.9873 16.1203 23.9873 15.5595 24.3948L11.0793 27.6499C9.82532 28.5609 8.13815 27.3351 8.61711 25.861L10.3284 20.5941C10.5426 19.9349 10.308 19.2127 9.74719 18.8053L5.26692 15.5502C4.01298 14.6391 4.65742 12.6558 6.20738 12.6558H11.7453C12.4385 12.6558 13.0528 12.2094 13.267 11.5502L14.9783 6.28331Z" fill="#FF8A00"/>
</svg>
