<svg width="42" height="42" viewBox="0 0 42 42" fill="none" xmlns="http://www.w3.org/2000/svg">
<path d="M19.0028 8.24672C19.6315 6.31197 22.3686 6.31197 22.9973 8.24672L25.2434 15.1595C25.5245 16.0247 26.3308 16.6106 27.2406 16.6106H34.5091C36.5434 16.6106 37.3892 19.2137 35.7434 20.4095L29.8631 24.6818C29.1271 25.2166 28.8191 26.1644 29.1002 27.0297L31.3463 33.9425C31.9749 35.8772 29.7605 37.4861 28.1147 36.2903L22.2344 32.018C21.4984 31.4833 20.5017 31.4833 19.7657 32.018L13.8853 36.2903C12.2395 37.4861 10.0251 35.8772 10.6538 33.9425L12.8999 27.0297C13.181 26.1644 12.873 25.2166 12.137 24.6818L6.25664 20.4095C4.61084 19.2137 5.45667 16.6106 7.49099 16.6106H14.7595C15.6693 16.6106 16.4756 16.0247 16.7567 15.1595L19.0028 8.24672Z" fill="#FF8A00"/>
</svg>
