<svg width="42" height="42" viewBox="0 0 42 42" fill="none" xmlns="http://www.w3.org/2000/svg">
<path d="M19.0028 8.24672C19.6314 6.31197 22.3686 6.31197 22.9972 8.24672L25.2433 15.1595C25.5244 16.0247 26.3307 16.6106 27.2405 16.6106H34.509C36.5433 16.6106 37.3892 19.2137 35.7434 20.4095L29.863 24.6818C29.127 25.2166 28.819 26.1644 29.1002 27.0297L31.3462 33.9425C31.9749 35.8772 29.7605 37.4861 28.1147 36.2903L22.2343 32.018C21.4983 31.4833 20.5017 31.4833 19.7656 32.018L13.8853 36.2903C12.2395 37.4861 10.0251 35.8772 10.6537 33.9425L12.8998 27.0297C13.1809 26.1644 12.873 25.2166 12.1369 24.6818L6.25658 20.4095C4.61078 19.2137 5.45661 16.6106 7.49093 16.6106H14.7594C15.6692 16.6106 16.4755 16.0247 16.7567 15.1595L19.0028 8.24672Z" fill="#FF8A00"/>
</svg>
