<svg width="33" height="32" viewBox="0 0 33 32" fill="none" xmlns="http://www.w3.org/2000/svg">
<path d="M14.9782 6.28331C15.4572 4.80921 17.5427 4.80921 18.0216 6.28331L19.7329 11.5502C19.9471 12.2094 20.5615 12.6558 21.2546 12.6558H26.7925C28.3425 12.6558 28.9869 14.6391 27.733 15.5502L23.2527 18.8053C22.6919 19.2127 22.4573 19.9349 22.6715 20.5941L24.3828 25.861C24.8618 27.3351 23.1746 28.5609 21.9207 27.6499L17.4404 24.3948C16.8796 23.9873 16.1202 23.9873 15.5595 24.3948L11.0792 27.6499C9.82526 28.5609 8.13809 27.3351 8.61705 25.861L10.3284 20.5941C10.5426 19.9349 10.3079 19.2127 9.74713 18.8053L5.26686 15.5502C4.01292 14.6391 4.65736 12.6558 6.20731 12.6558H11.7452C12.4384 12.6558 13.0527 12.2094 13.2669 11.5502L14.9782 6.28331Z" fill="#FF8A00"/>
</svg>
