<svg width="32" height="32" viewBox="0 0 32 32" fill="none" xmlns="http://www.w3.org/2000/svg">
<path d="M27.32 10.0267C27.3125 9.9915 27.3125 9.95514 27.32 9.91999C27.3136 9.88921 27.3136 9.85743 27.32 9.82665V9.70665L27.24 9.50665C27.2075 9.45208 27.1671 9.40265 27.12 9.35999L27 9.25332H26.9334L21.68 5.93332L16.72 2.86665C16.6053 2.77563 16.474 2.70771 16.3334 2.66665H16.2267C16.1075 2.64676 15.9859 2.64676 15.8667 2.66665H15.7334C15.5785 2.70091 15.43 2.75941 15.2934 2.83999L5.33336 9.03999L5.21336 9.13332L5.09336 9.23999L4.96003 9.33332L4.89336 9.41332L4.81336 9.61332V9.73332V9.81332C4.80041 9.90174 4.80041 9.99157 4.81336 10.08V21.72C4.81291 21.9466 4.87021 22.1695 4.97986 22.3678C5.0895 22.5661 5.24788 22.7332 5.44003 22.8533L15.44 29.04L15.64 29.12H15.7467C15.9723 29.1915 16.2145 29.1915 16.44 29.12H16.5467L16.7467 29.04L26.6667 22.9467C26.8588 22.8266 27.0172 22.6595 27.1269 22.4612C27.2365 22.2629 27.2938 22.0399 27.2934 21.8133V10.1733C27.2934 10.1733 27.32 10.08 27.32 10.0267ZM16 5.55999L18.3734 7.02665L10.92 11.64L8.53336 10.1733L16 5.55999ZM14.6667 25.56L7.33336 21.08V12.56L14.6667 17.0933V25.56ZM16 14.7467L13.4534 13.2133L20.9067 8.58665L23.4667 10.1733L16 14.7467ZM24.6667 21.04L17.3334 25.6V17.0933L24.6667 12.56V21.04Z" fill="black"/>
</svg>
