<svg width="204" height="39" viewBox="0 0 204 39" fill="none" xmlns="http://www.w3.org/2000/svg">
<path d="M15.8779 24.0374V15.9349H31.8637V37.9197C28.3713 38.6399 24.5549 39 20.4144 39H14.2037C9.09107 39 5.43664 37.9737 3.24038 35.9211C1.08013 33.8324 0 30.4294 0 25.7119V13.2881C0 8.57064 1.08013 5.1856 3.24038 3.13296C5.43664 1.04432 9.09107 0 14.2037 0H17.9301C22.4306 0 26.2471 0.3241 29.3794 0.9723V9.18282H15.5538C12.8175 9.18282 11.4493 10.6233 11.4493 13.5042V25.4958C11.4493 28.3767 12.8175 29.8172 15.5538 29.8172H20.9545V24.0374H15.8779Z" fill="white"/>
<path d="M64.0106 38.4598L62.3364 32.7881H50.9951L49.3209 38.4598H37.4395L50.347 0.540166H62.9845L75.892 38.4598H64.0106ZM56.6657 13.4501L53.5334 24.1454H59.7981L56.6657 13.4501Z" fill="white"/>
<path d="M93.128 14.9626H98.3126C99.8968 14.9626 100.689 14.2784 100.689 12.91V11.4515C100.689 10.0831 99.8968 9.39889 98.3126 9.39889H93.128V14.9626ZM111.922 10.5873V12.4238C111.922 13.9723 111.562 15.3227 110.842 16.4751C110.122 17.6274 109.15 18.4557 107.926 18.9598C109.294 19.3199 110.374 20.1302 111.166 21.3906C111.958 22.651 112.354 24.1994 112.354 26.036V27.9806C112.354 34.9668 108.376 38.4598 100.419 38.4598H81.6787V0.540166H100.527C104.199 0.540166 107.008 1.40443 108.952 3.13296C110.932 4.82548 111.922 7.31025 111.922 10.5873ZM93.128 29.6011H98.2586C99.0867 29.6011 99.7348 29.385 100.203 28.9529C100.671 28.5208 100.905 27.9086 100.905 27.1163V25.874C100.905 25.0817 100.671 24.4695 100.203 24.0374C99.7348 23.6053 99.0867 23.3892 98.2586 23.3892H93.128V29.6011Z" fill="white"/>
<path d="M132.541 38.4598H121.091V0.540166H132.541V38.4598Z" fill="white"/>
<path d="M162.447 0.540166H173.896V38.4598H162.771L153.644 20.2022V38.4598H142.14V0.540166H153.266L162.447 18.7978V0.540166Z" fill="white"/>
<path d="M194.954 38.4598H183.505V0.540166H194.954V38.4598Z" fill="white"/>
<path d="M200.127 4.45974V1.39367H201.042C201.328 1.39367 201.556 1.42464 201.728 1.48658C201.904 1.54852 202.03 1.6462 202.106 1.77961C202.187 1.90825 202.228 2.07502 202.228 2.2799C202.228 2.46572 202.175 2.62533 202.071 2.75875C201.966 2.89216 201.809 2.99936 201.599 3.08036L202.457 4.45974H201.885L201.149 3.20901H200.62V4.45974H200.127ZM200.62 2.83022H201.042C201.266 2.83022 201.432 2.78495 201.542 2.69442C201.656 2.60389 201.713 2.47048 201.713 2.29419C201.713 2.09407 201.651 1.96066 201.528 1.89396C201.409 1.82249 201.237 1.78675 201.013 1.78675H200.62V2.83022ZM201.056 5.88914C200.651 5.88914 200.27 5.8129 199.913 5.66043C199.555 5.50796 199.241 5.29832 198.969 5.0315C198.703 4.75991 198.493 4.44544 198.341 4.08809C198.188 3.73074 198.112 3.34957 198.112 2.94457C198.112 2.53481 198.188 2.15363 198.341 1.80105C198.493 1.4437 198.703 1.13161 198.969 0.86479C199.241 0.593204 199.555 0.381175 199.913 0.228706C200.27 0.0762363 200.651 0 201.056 0C201.466 0 201.847 0.0762363 202.199 0.228706C202.557 0.381175 202.869 0.593204 203.135 0.86479C203.407 1.13161 203.619 1.4437 203.771 1.80105C203.924 2.15363 204 2.53481 204 2.94457C204 3.34957 203.924 3.73074 203.771 4.08809C203.619 4.44544 203.407 4.75991 203.135 5.0315C202.869 5.29832 202.557 5.50796 202.199 5.66043C201.847 5.8129 201.466 5.88914 201.056 5.88914ZM201.056 5.48891C201.409 5.48891 201.737 5.42458 202.042 5.29594C202.352 5.16252 202.623 4.97908 202.857 4.74562C203.09 4.51215 203.271 4.24294 203.4 3.938C203.533 3.6283 203.6 3.29715 203.6 2.94457C203.6 2.59198 203.533 2.26322 203.4 1.95828C203.271 1.64858 203.09 1.37699 202.857 1.14352C202.623 0.910054 202.352 0.728995 202.042 0.600348C201.737 0.466938 201.409 0.400233 201.056 0.400233C200.703 0.400233 200.372 0.466938 200.063 0.600348C199.758 0.728995 199.489 0.910054 199.255 1.14352C199.022 1.37699 198.838 1.64858 198.705 1.95828C198.576 2.26322 198.512 2.59198 198.512 2.94457C198.512 3.29715 198.576 3.6283 198.705 3.938C198.838 4.24294 199.022 4.51215 199.255 4.74562C199.489 4.97908 199.758 5.16252 200.063 5.29594C200.372 5.42458 200.703 5.48891 201.056 5.48891Z" fill="white"/>
</svg>
