<svg width="15" height="14" viewBox="0 0 15 14" fill="none" xmlns="http://www.w3.org/2000/svg">
<path d="M8.35994 2.13035C8.46731 1.94741 8.81526 2.03509 8.82101 2.2472C8.84942 3.24223 8.99152 4.75676 9.55596 5.70998C10.1213 6.66151 11.3833 7.51439 12.2428 8.01558C12.4257 8.12295 12.3363 8.47 12.1242 8.47575C11.1292 8.50416 9.61638 8.64715 8.66315 9.2116C7.70992 9.77604 6.85875 11.039 6.35756 11.8984C6.25019 12.0814 5.90143 11.9911 5.89739 11.7799C5.86898 10.7848 5.72598 9.27201 5.15984 8.31789C4.59539 7.36466 3.33248 6.51349 2.47471 6.0132C2.29177 5.90582 2.38035 5.55617 2.59156 5.55213C3.58659 5.52372 5.10112 5.38162 6.05525 4.81547C7.00677 4.25013 7.85965 2.98811 8.35994 2.13035Z" fill="white"/>
</svg>
