<svg width="14" height="14" viewBox="0 0 14 14" fill="none" xmlns="http://www.w3.org/2000/svg">
<path d="M8.05281 2.15781C8.16018 1.97487 8.50814 2.06256 8.51388 2.27466C8.54229 3.2697 8.68439 4.78422 9.24883 5.73745C9.81417 6.68897 11.0762 7.54185 11.9357 8.04304C12.1186 8.15041 12.0292 8.49747 11.8171 8.50321C10.8221 8.53162 9.30925 8.67462 8.35602 9.23906C7.40279 9.8035 6.55162 11.0664 6.05043 11.9259C5.94306 12.1088 5.5943 12.0185 5.59026 11.8073C5.56185 10.8123 5.41885 9.29948 4.85271 8.34536C4.28826 7.39213 3.02535 6.54095 2.16758 6.04066C1.98464 5.93329 2.07322 5.58363 2.28443 5.57959C3.27946 5.55118 4.79399 5.40908 5.74812 4.84294C6.69964 4.2776 7.55252 3.01558 8.05281 2.15781Z" fill="white"/>
</svg>
