<svg width="15" height="15" viewBox="0 0 15 15" fill="none" xmlns="http://www.w3.org/2000/svg">
<path d="M8.25752 2.80613C8.36489 2.62319 8.71285 2.71087 8.71859 2.92298C8.747 3.91801 8.8891 5.43254 9.45354 6.38576C10.0189 7.33729 11.2809 8.19017 12.1404 8.69136C12.3233 8.79873 12.2339 9.14578 12.0218 9.15153C11.0268 9.17994 9.51396 9.32294 8.56073 9.88738C7.60751 10.4518 6.75633 11.7147 6.25514 12.5742C6.14777 12.7571 5.79901 12.6669 5.79497 12.4557C5.76656 11.4606 5.62356 9.9478 5.05742 8.99367C4.49298 8.04044 3.23006 7.18927 2.3723 6.68898C2.18936 6.58161 2.27793 6.23195 2.48914 6.22791C3.48418 6.1995 4.9987 6.0574 5.95283 5.49125C6.90435 4.92591 7.75723 3.66389 8.25752 2.80613Z" fill="white"/>
</svg>
