<svg width="14" height="15" viewBox="0 0 14 15" fill="none" xmlns="http://www.w3.org/2000/svg">
<path d="M8.15511 2.48191C8.26248 2.29897 8.61043 2.38665 8.61617 2.59876C8.64458 3.59379 8.78668 5.10832 9.35112 6.06154C9.91646 7.01307 11.1785 7.86595 12.038 8.36714C12.2209 8.47451 12.1315 8.82157 11.9194 8.82731C10.9244 8.85572 9.41154 8.99872 8.45832 9.56316C7.50509 10.1276 6.65391 11.3905 6.15272 12.25C6.04535 12.4329 5.69659 12.3426 5.69256 12.1314C5.66414 11.1364 5.52115 9.62358 4.955 8.66945C4.39056 7.71623 3.12764 6.86505 2.26988 6.36476C2.08694 6.25739 2.17552 5.90773 2.38673 5.90369C3.38176 5.87528 4.89629 5.73318 5.85041 5.16703C6.80194 4.60169 7.65481 3.33967 8.15511 2.48191Z" fill="white"/>
</svg>
