<svg width="15" height="15" viewBox="0 0 15 15" fill="none" xmlns="http://www.w3.org/2000/svg">
<path d="M8.42024 2.5991C8.52761 2.41616 8.87557 2.50384 8.88131 2.71595C8.90972 3.71098 9.05182 5.22551 9.61626 6.17873C10.1816 7.13026 11.4436 7.98314 12.3031 8.48433C12.486 8.5917 12.3966 8.93875 12.1845 8.9445C11.1895 8.97291 9.67668 9.1159 8.72345 9.68035C7.77023 10.2448 6.91905 11.5077 6.41786 12.3672C6.31049 12.5501 5.96173 12.4598 5.95769 12.2486C5.92928 11.2536 5.78628 9.74076 5.22014 8.78664C4.6557 7.83341 3.39278 6.98224 2.53502 6.48195C2.35208 6.37457 2.44065 6.02492 2.65186 6.02088C3.6469 5.99247 5.16142 5.85037 6.11555 5.28422C7.06707 4.71888 7.91995 3.45686 8.42024 2.5991Z" fill="white"/>
</svg>
