<svg width="15" height="15" viewBox="0 0 15 15" fill="none" xmlns="http://www.w3.org/2000/svg">
<path d="M8.68538 2.71641C8.79275 2.53347 9.1407 2.62115 9.14645 2.83326C9.17486 3.82829 9.31696 5.34281 9.8814 6.29604C10.4467 7.24756 11.7088 8.10044 12.5682 8.60163C12.7512 8.70901 12.6618 9.05606 12.4497 9.06181C11.4546 9.09022 9.94182 9.23321 8.98859 9.79766C8.03536 10.3621 7.18419 11.625 6.683 12.4845C6.57563 12.6674 6.22687 12.5771 6.22283 12.3659C6.19442 11.3709 6.05142 9.85807 5.48527 8.90395C4.92083 7.95072 3.65792 7.09955 2.80015 6.59926C2.61721 6.49188 2.70579 6.14222 2.917 6.13819C3.91203 6.10978 5.42656 5.96768 6.38069 5.40153C7.33221 4.83619 8.18509 3.57417 8.68538 2.71641Z" fill="white"/>
</svg>
