<svg width="15" height="14" viewBox="0 0 15 14" fill="none" xmlns="http://www.w3.org/2000/svg">
<path d="M8.62495 2.24754C8.73233 2.06459 9.08028 2.15228 9.08602 2.36438C9.11443 3.35942 9.25653 4.87394 9.82097 5.82717C10.3863 6.77869 11.6483 7.63157 12.5078 8.13276C12.6907 8.24013 12.6014 8.58719 12.3892 8.59293C11.3942 8.62134 9.88139 8.76434 8.92816 9.32878C7.97494 9.89322 7.12376 11.1561 6.62257 12.0156C6.5152 12.1986 6.16644 12.1083 6.1624 11.8971C6.13399 10.902 5.991 9.3892 5.42485 8.43508C4.86041 7.48185 3.59749 6.63067 2.73973 6.13038C2.55679 6.02301 2.64537 5.67335 2.85657 5.66931C3.85161 5.6409 5.36614 5.4988 6.32026 4.93266C7.27178 4.36732 8.12466 3.1053 8.62495 2.24754Z" fill="white"/>
</svg>
