<svg width="14" height="14" viewBox="0 0 14 14" fill="none" xmlns="http://www.w3.org/2000/svg">
<path d="M7.78767 2.0405C7.89505 1.85756 8.243 1.94525 8.24874 2.15735C8.27715 3.15239 8.41925 4.66691 8.98369 5.62014C9.54903 6.57166 10.8111 7.42454 11.6705 7.92573C11.8535 8.0331 11.7641 8.38016 11.552 8.3859C10.5569 8.41431 9.04411 8.55731 8.09088 9.12175C7.13766 9.68619 6.28648 10.9491 5.78529 11.8086C5.67792 11.9915 5.32916 11.9012 5.32512 11.69C5.29671 10.695 5.15371 9.18217 4.58757 8.22805C4.02313 7.27482 2.76021 6.42364 1.90245 5.92335C1.71951 5.81598 1.80809 5.46632 2.01929 5.46228C3.01433 5.43387 4.52886 5.29177 5.48298 4.72563C6.4345 4.16029 7.28738 2.89827 7.78767 2.0405Z" fill="white"/>
</svg>
