<svg width="14" height="14" viewBox="0 0 14 14" fill="none" xmlns="http://www.w3.org/2000/svg">
<path d="M7.82988 1.89597C7.93725 1.71303 8.2852 1.80072 8.29095 2.01282C8.31936 3.00786 8.46146 4.52238 9.0259 5.47561C9.59124 6.42713 10.8533 7.28001 11.7127 7.7812C11.8957 7.88857 11.8063 8.23563 11.5942 8.24137C10.5991 8.26978 9.08632 8.41278 8.13309 8.97722C7.17986 9.54166 6.32869 10.8046 5.8275 11.664C5.72013 11.847 5.37137 11.7567 5.36733 11.5455C5.33892 10.5505 5.19592 9.03764 4.62978 8.08351C4.06533 7.13029 2.80242 6.27911 1.94465 5.77882C1.76171 5.67145 1.85029 5.32179 2.0615 5.31775C3.05653 5.28934 4.57106 5.14724 5.52519 4.5811C6.47671 4.01576 7.32959 2.75374 7.82988 1.89597Z" fill="white"/>
</svg>
