<svg width="15" height="15" viewBox="0 0 15 15" fill="none" xmlns="http://www.w3.org/2000/svg">
<path d="M8.46242 2.45457C8.56979 2.27163 8.91774 2.35931 8.92349 2.57142C8.9519 3.56645 9.094 5.08098 9.65844 6.03421C10.2238 6.98573 11.4858 7.83861 12.3453 8.3398C12.5282 8.44717 12.4388 8.79423 12.2267 8.79997C11.2317 8.82838 9.71885 8.97138 8.76563 9.53582C7.8124 10.1003 6.96123 11.3632 6.46004 12.2226C6.35267 12.4056 6.00391 12.3153 5.99987 12.1041C5.97146 11.1091 5.82846 9.59624 5.26231 8.64211C4.69787 7.68889 3.43496 6.83771 2.57719 6.33742C2.39425 6.23005 2.48283 5.88039 2.69404 5.87635C3.68907 5.84794 5.2036 5.70584 6.15772 5.13969C7.10925 4.57435 7.96213 3.31233 8.46242 2.45457Z" fill="white"/>
</svg>
