<svg width="14" height="14" viewBox="0 0 14 14" fill="none" xmlns="http://www.w3.org/2000/svg">
<path d="M8.09493 2.01316C8.2023 1.83022 8.55025 1.9179 8.55599 2.13001C8.5844 3.12504 8.7265 4.63957 9.29094 5.59279C9.85628 6.54432 11.1183 7.3972 11.9778 7.89839C12.1607 8.00576 12.0713 8.35282 11.8592 8.35856C10.8642 8.38697 9.35136 8.52997 8.39813 9.09441C7.44491 9.65885 6.59373 10.9218 6.09254 11.7812C5.98517 11.9642 5.63641 11.8739 5.63237 11.6627C5.60396 10.6676 5.46097 9.15483 4.89482 8.2007C4.33038 7.24748 3.06746 6.3963 2.2097 5.89601C2.02676 5.78864 2.11534 5.43898 2.32654 5.43494C3.32158 5.40653 4.83611 5.26443 5.79023 4.69828C6.74176 4.13294 7.59463 2.87092 8.09493 2.01316Z" fill="white"/>
</svg>
