<svg width="15" height="15" viewBox="0 0 15 15" fill="none" xmlns="http://www.w3.org/2000/svg">
<path d="M8.72743 2.57175C8.8348 2.38881 9.18276 2.4765 9.1885 2.6886C9.21691 3.68364 9.35901 5.19816 9.92345 6.15139C10.4888 7.10291 11.7508 7.95579 12.6103 8.45698C12.7932 8.56435 12.7038 8.91141 12.4917 8.91715C11.4967 8.94556 9.98387 9.08856 9.03064 9.653C8.07742 10.2174 7.22624 11.4804 6.72505 12.3398C6.61768 12.5228 6.26892 12.4325 6.26488 12.2213C6.23647 11.2262 6.09347 9.71342 5.52733 8.7593C4.96289 7.80607 3.69997 6.95489 2.84221 6.4546C2.65927 6.34723 2.74784 5.99757 2.95905 5.99353C3.95409 5.96512 5.46861 5.82302 6.42274 5.25688C7.37426 4.69154 8.22714 3.42952 8.72743 2.57175Z" fill="white"/>
</svg>
