<svg width="14" height="15" viewBox="0 0 14 15" fill="none" xmlns="http://www.w3.org/2000/svg">
<path d="M7.99251 2.68894C8.09988 2.506 8.44783 2.59368 8.45358 2.80579C8.48199 3.80082 8.62409 5.31535 9.18853 6.26858C9.75387 7.2201 11.0159 8.07298 11.8754 8.57417C12.0583 8.68154 11.9689 9.0286 11.7568 9.03434C10.7618 9.06275 9.24894 9.20575 8.29572 9.77019C7.34249 10.3346 6.49132 11.5975 5.99013 12.457C5.88276 12.64 5.534 12.5497 5.52996 12.3385C5.50155 11.3434 5.35855 9.83061 4.7924 8.87648C4.22796 7.92326 2.96505 7.07208 2.10728 6.57179C1.92434 6.46442 2.01292 6.11476 2.22413 6.11072C3.21916 6.08231 4.73369 5.94021 5.68782 5.37407C6.63934 4.80873 7.49222 3.54671 7.99251 2.68894Z" fill="white"/>
</svg>
