<svg width="15" height="14" viewBox="0 0 15 14" fill="none" xmlns="http://www.w3.org/2000/svg">
<path d="M8.52254 1.92332C8.62991 1.74038 8.97786 1.82806 8.98361 2.04017C9.01202 3.0352 9.15411 4.54972 9.71856 5.50295C10.2839 6.45447 11.5459 7.30735 12.4054 7.80854C12.5883 7.91592 12.4989 8.26297 12.2868 8.26871C11.2918 8.29713 9.77897 8.44012 8.82575 9.00456C7.87252 9.56901 7.02135 10.8319 6.52016 11.6914C6.41279 11.8743 6.06403 11.784 6.05999 11.5728C6.03158 10.5778 5.88858 9.06498 5.32243 8.11086C4.75799 7.15763 3.49507 6.30646 2.63731 5.80616C2.45437 5.69879 2.54295 5.34913 2.75416 5.3451C3.74919 5.31668 5.26372 5.17459 6.21784 4.60844C7.16937 4.0431 8.02225 2.78108 8.52254 1.92332Z" fill="white"/>
</svg>
