<svg width="14" height="14" viewBox="0 0 14 14" fill="none" xmlns="http://www.w3.org/2000/svg">
<path d="M7.89009 2.36472C7.99746 2.18178 8.34542 2.26947 8.35116 2.48157C8.37957 3.47661 8.52167 4.99113 9.08611 5.94436C9.65145 6.89588 10.9135 7.74876 11.7729 8.24995C11.9559 8.35732 11.8665 8.70438 11.6544 8.71012C10.6594 8.73853 9.14653 8.88153 8.1933 9.44597C7.24007 10.0104 6.3889 11.2733 5.88771 12.1328C5.78034 12.3157 5.43158 12.2255 5.42754 12.0142C5.39913 11.0192 5.25613 9.50639 4.68999 8.55226C4.12554 7.59904 2.86263 6.74786 2.00487 6.24757C1.82192 6.1402 1.9105 5.79054 2.12171 5.7865C3.11674 5.75809 4.63127 5.61599 5.5854 5.04985C6.53692 4.48451 7.3898 3.22249 7.89009 2.36472Z" fill="white"/>
</svg>
